<?xml version="1.0" standalone="no"?><!DOCTYPE svg PUBLIC "-//W3C//DTD SVG 1.1//EN" "http://www.w3.org/Graphics/SVG/1.1/DTD/svg11.dtd"><svg t="1765423780072" class="icon" viewBox="0 0 1024 1024" version="1.1" xmlns="http://www.w3.org/2000/svg" p-id="4463" xmlns:xlink="http://www.w3.org/1999/xlink" width="128" height="128"><path d="M512.064 372.224c-28.8 0-57.344-4.352-84.864-12.8L87.552 254.592a32 32 0 0 1 0-61.184l339.648-104.768a286.848 286.848 0 0 1 169.6 0l340.608 104.768a32 32 0 0 1 0 61.184L596.8 359.424c-27.456 8.512-56 12.8-84.736 12.8zM205.568 224.064L446.08 298.24c42.944 13.312 88.96 13.312 131.84 0L819.2 224 577.92 149.888a223.168 223.168 0 0 0-131.84 0l-240.576 74.24z" fill="#222222" p-id="4464"></path><path d="M512 640a256 256 0 0 1-256-256V304h64V384c0 105.856 86.144 192 192 192s192-86.144 192-192V304h64V384a256 256 0 0 1-256 256zM128 256h64v160a32 32 0 1 1-64 0V256zM112 528a48 48 0 1 0 96 0 48 48 0 0 0-96 0z" fill="#222222" p-id="4465"></path><path d="M864 960h-704a32 32 0 0 1-32-32 383.808 383.808 0 0 1 133.888-291.392 32 32 0 0 1 39.872-1.472A351.616 351.616 0 0 0 512 704c76.48 0 149.12-23.808 210.24-68.864a32 32 0 0 1 39.872 1.472A383.808 383.808 0 0 1 896 928a32 32 0 0 1-32 32zM193.6 896h636.8a319.68 319.68 0 0 0-92.096-194.24A415.232 415.232 0 0 1 512 768a415.36 415.36 0 0 1-226.304-66.24A319.68 319.68 0 0 0 193.6 896z" fill="#222222" p-id="4466"></path></svg>