<?xml version="1.0" standalone="no"?><!DOCTYPE svg PUBLIC "-//W3C//DTD SVG 1.1//EN" "http://www.w3.org/Graphics/SVG/1.1/DTD/svg11.dtd"><svg t="1709863315646" class="icon" viewBox="0 0 1024 1024" version="1.1" xmlns="http://www.w3.org/2000/svg" p-id="40852" width="128" height="128" xmlns:xlink="http://www.w3.org/1999/xlink"><path d="M966.4 217.6l-448 185.6-448-185.6 448-172.8 448 172.8zM32 288l448 185.6v505.6c-38.4-12.8-70.4-32-108.8-51.2-32-12.8-70.4-32-108.8-51.2-38.4-19.2-83.2-38.4-121.6-51.2-12.8-6.4-25.6-12.8-38.4-25.6-12.8-12.8-25.6-25.6-32-38.4-6.4-12.8-12.8-25.6-19.2-44.8-6.4-12.8-6.4-32-6.4-44.8l-12.8-384z m960 0v390.4c0 19.2-6.4 32-12.8 51.2-6.4 19.2-12.8 32-25.6 44.8-12.8 12.8-19.2 25.6-38.4 38.4-12.8 12.8-25.6 19.2-38.4 25.6-38.4 12.8-76.8 32-115.2 44.8-38.4 19.2-76.8 32-108.8 44.8-38.4 19.2-76.8 32-115.2 44.8V480l454.4-192z" fill="" p-id="40853"></path></svg>